<?xml version="1.0" standalone="no"?>
<!DOCTYPE svg PUBLIC "-//W3C//DTD SVG 20010904//EN"
 "http://www.w3.org/TR/2001/REC-SVG-20010904/DTD/svg10.dtd">

<svg version="1.0" xmlns="http://www.w3.org/2000/svg"
 width="300.000000pt" height="200.000000pt" viewBox="0 0 300.000000 200.000000"
 preserveAspectRatio="xMidYMid meet">

<g transform="translate(0.000000,200.000000) scale(0.100000,-0.100000)"
fill="#000000" stroke="none">
<path d="M1419 1716 c-94 -25 -202 -113 -235 -192 -28 -67 -45 -150 -45 -228
0 -56 -4 -83 -14 -90 -19 -14 -3 -151 25 -216 10 -25 22 -66 25 -93 3 -26 20
-73 37 -105 27 -52 29 -62 23 -122 -4 -42 -11 -68 -21 -73 -8 -5 -12 -16 -10
-25 6 -17 1 -21 -60 -52 -16 -8 -58 -34 -93 -58 -79 -54 -193 -110 -241 -118
-69 -10 -81 -15 -101 -35 -11 -11 -48 -35 -83 -54 -34 -19 -72 -45 -83 -57
-19 -22 -123 -185 -123 -194 0 -2 6 -4 14 -4 7 0 37 38 65 84 46 73 90 126
106 126 3 0 24 12 46 27 34 22 42 24 50 12 7 -11 9 -9 9 8 0 27 35 53 72 53
15 0 52 11 82 24 l55 24 4 -21 c4 -22 4 -22 6 0 1 20 47 54 86 63 6 2 16 11
24 22 7 11 19 17 27 14 8 -3 14 -1 14 4 0 10 58 50 71 50 4 0 8 -31 11 -69 3
-66 6 -71 49 -118 25 -26 50 -55 55 -64 5 -8 34 -27 64 -42 30 -15 71 -36 90
-47 24 -15 44 -19 65 -15 17 4 54 8 82 9 29 2 63 11 75 20 13 9 44 30 71 47
26 17 47 34 47 38 0 4 16 23 35 44 19 20 37 48 41 62 3 14 11 22 17 18 7 -4 8
0 4 12 -4 9 -2 25 5 33 10 12 10 14 1 8 -15 -9 -17 3 -3 24 6 9 10 11 10 3 0
-7 7 -10 15 -7 8 4 15 1 15 -6 0 -6 4 -9 9 -5 6 3 26 -8 45 -25 19 -17 38 -31
41 -30 16 3 243 -117 281 -149 7 -6 14 -7 17 -4 13 12 95 -87 127 -154 22 -45
41 -72 51 -73 13 0 6 20 -32 92 -27 51 -60 103 -72 115 -28 27 -189 119 -291
167 -44 20 -93 47 -110 59 -43 32 -146 89 -146 80 0 -4 -6 2 -14 13 -21 28
-26 14 -17 -47 7 -41 5 -61 -6 -82 -8 -16 -12 -34 -10 -40 5 -14 57 96 57 121
1 16 1 16 11 0 7 -13 5 -26 -5 -47 -8 -15 -13 -31 -10 -34 12 -11 -9 -50 -58
-105 -27 -31 -57 -57 -65 -57 -8 0 -25 -12 -37 -27 -11 -15 -34 -32 -49 -37
-36 -14 -77 -14 -77 -1 0 15 -16 12 -35 -6 -10 -11 -24 -14 -42 -9 -37 9 -67
31 -54 40 6 3 11 2 11 -3 0 -6 14 -15 31 -21 24 -8 35 -7 55 5 19 13 27 14 39
4 22 -18 60 -5 62 22 l2 23 -19 -25 c-16 -21 -21 -23 -42 -12 -25 14 -69 13
-79 -2 -9 -11 -51 12 -44 25 11 16 -7 10 -20 -8 -11 -15 -17 -14 -71 13 -33
16 -58 34 -57 39 1 6 -7 19 -17 30 -11 11 -19 29 -18 40 0 11 -3 29 -7 39 -7
15 -5 17 5 11 10 -6 12 -4 7 9 -4 10 -7 32 -7 49 0 22 -3 28 -9 18 -6 -9 -10
-1 -13 27 -2 22 0 38 4 36 5 -3 8 5 8 18 0 13 7 36 15 52 8 15 15 39 15 52 0
12 5 26 10 29 6 3 10 -1 10 -9 0 -9 5 -16 11 -16 6 0 9 7 5 15 -9 23 0 18 20
-12 15 -24 15 -26 1 -14 -27 22 -20 3 23 -61 22 -33 37 -65 33 -71 -3 -6 -1
-7 5 -3 7 4 12 15 12 24 0 12 3 13 12 4 14 -14 136 -16 158 -2 14 9 -27 14
-112 14 -9 0 -15 3 -12 8 3 4 29 8 59 8 30 0 66 5 81 10 19 8 30 7 41 -1 8 -7
13 -8 11 -3 -2 5 17 27 41 49 24 22 56 59 71 83 l26 43 -4 -61 c-4 -59 12
-125 29 -115 4 3 12 -3 18 -12 10 -17 10 -17 11 -1 0 10 -9 23 -20 30 -17 11
-20 24 -20 98 0 71 4 93 25 134 14 27 25 59 25 72 0 16 5 21 18 17 24 -6 46
21 39 48 -3 11 3 35 14 53 12 20 21 59 24 98 2 36 5 69 6 74 5 27 -3 44 -20
44 -17 0 -20 10 -26 68 -16 180 -42 266 -98 319 -55 52 -99 78 -186 108 -78
28 -114 30 -182 11z m167 -31 c70 -18 133 -54 188 -108 38 -37 45 -52 64 -132
13 -53 22 -123 22 -168 0 -48 4 -77 11 -77 5 0 7 -5 4 -10 -4 -6 -8 -29 -11
-52 -2 -23 -13 -79 -24 -125 -12 -46 -19 -87 -16 -92 3 -5 -1 -22 -9 -37 -8
-16 -15 -35 -15 -42 0 -22 -56 -125 -104 -189 -47 -64 -70 -85 -39 -36 l17 28
-27 -24 c-14 -13 -25 -28 -24 -34 2 -11 -19 -15 -126 -23 -68 -5 -81 -3 -107
16 -33 23 -109 134 -148 214 -39 81 -63 255 -39 286 11 13 10 13 -6 1 -17 -14
-18 -11 -13 37 5 52 39 132 56 132 6 0 5 9 -2 20 -12 18 -13 19 -20 2 -5 -13
-7 -12 -8 8 -1 14 -10 -8 -20 -48 -10 -40 -23 -78 -28 -85 -5 -7 -8 -21 -6
-32 2 -11 6 -40 9 -65 l5 -45 -15 50 c-19 65 -19 132 0 151 10 10 14 33 13 72
-2 69 10 152 22 152 5 0 13 12 17 28 20 83 89 181 116 166 6 -4 9 -4 5 1 -18
19 103 74 164 75 20 0 63 -7 94 -15z m324 -514 c0 -11 3 -27 7 -37 5 -13 3
-16 -9 -12 -13 5 -14 1 -8 -27 9 -42 -2 -101 -19 -97 -7 1 -10 -2 -6 -8 7 -12
-23 -46 -32 -36 -3 3 -1 16 4 29 6 13 17 60 23 103 7 43 14 85 16 92 5 19 24
14 24 -7z m-37 -246 c-7 -19 -33 -20 -33 -1 0 15 20 26 32 19 4 -2 5 -10 1
-18z m-678 -445 c-2 -16 1 -30 6 -30 5 0 9 -10 9 -22 0 -18 2 -20 10 -8 9 14
9 10 1 -54 0 -6 -7 -4 -13 2 -10 10 -10 15 2 22 13 8 12 10 -2 10 -10 0 -18
-4 -18 -9 0 -21 13 -41 26 -41 8 0 14 -9 14 -21 0 -18 -2 -18 -26 8 -21 22
-25 35 -20 62 3 19 1 41 -4 51 -10 18 -3 60 11 60 4 0 6 -13 4 -30z m621 -5
c0 -14 -4 -25 -8 -25 -4 0 -7 11 -6 25 3 33 16 33 14 0z"/>
<path d="M1213 1424 c-3 -8 -1 -25 4 -37 8 -18 10 -16 9 16 -1 41 -4 45 -13
21z"/>
<path d="M1690 1300 c-8 -5 -31 -10 -50 -10 -19 0 -43 -7 -52 -14 -22 -16 -23
-23 -3 -23 8 0 15 4 15 9 0 5 14 7 31 4 17 -2 41 0 53 5 31 15 72 -4 96 -43
11 -18 20 -26 20 -18 0 31 -59 99 -85 100 -5 0 -17 -5 -25 -10z"/>
<path d="M1265 1270 c-5 -9 7 -14 27 -11 19 2 100 -43 114 -65 14 -21 15 -31
4 -68 -7 -25 -9 -49 -5 -55 3 -6 -3 -24 -14 -40 -12 -16 -21 -33 -21 -38 0
-13 55 -58 71 -57 8 0 20 -4 27 -10 9 -6 18 -5 28 6 13 13 12 15 -8 14 -14 -1
-23 5 -23 14 0 11 -10 14 -38 12 -32 -3 -37 -1 -37 17 0 24 15 28 24 6 11 -29
22 -15 21 27 -1 23 -6 43 -13 46 -7 2 -12 9 -12 15 0 8 4 7 12 -1 18 -18 28
-15 28 8 0 11 -5 20 -10 20 -6 0 -4 13 5 30 8 16 14 39 14 52 -1 17 -3 18 -6
6 -6 -24 -15 -22 -36 7 -12 16 -14 25 -6 25 17 0 6 10 -17 15 -11 2 -37 11
-59 19 -48 18 -62 19 -70 6z"/>
<path d="M1537 1246 c-4 -10 -1 -13 8 -9 8 3 12 9 9 14 -7 12 -11 11 -17 -5z"/>
<path d="M1595 1206 c-28 -20 -29 -48 -2 -41 21 6 21 5 4 -9 -18 -14 -18 -15
3 -26 25 -13 42 -4 20 11 -13 8 -13 10 0 19 8 5 27 10 43 10 15 0 27 5 27 11
0 5 10 3 22 -5 34 -24 51 -21 37 5 -7 14 -14 18 -18 11 -4 -7 -12 -8 -21 -2
-8 6 -33 10 -55 11 -32 0 -36 2 -20 9 20 8 20 9 -1 9 -11 1 -29 -5 -39 -13z
m35 -26 c0 -5 -4 -10 -10 -10 -5 0 -10 5 -10 10 0 6 5 10 10 10 6 0 10 -4 10
-10z"/>
<path d="M1258 1193 c-9 -10 -20 -28 -26 -39 -10 -19 -8 -23 11 -28 35 -9 42
-7 24 7 -20 14 -11 31 22 42 16 5 21 4 17 -4 -5 -7 4 -11 23 -11 17 0 31 5 31
10 0 6 11 3 25 -6 14 -9 25 -12 25 -6 0 17 -57 34 -100 30 -38 -3 -54 5 -27
15 7 3 7 6 1 6 -6 1 -18 -7 -26 -16z"/>
<path d="M1370 1200 c20 -13 33 -13 25 0 -3 6 -14 10 -23 10 -15 0 -15 -2 -2
-10z"/>
<path d="M1217 1181 c-4 -17 -3 -21 5 -13 5 5 8 16 6 23 -3 8 -7 3 -11 -10z"/>
<path d="M1541 1164 c0 -11 3 -14 6 -6 3 7 2 16 -1 19 -3 4 -6 -2 -5 -13z"/>
<path d="M1815 1110 c3 -19 10 -39 15 -44 7 -7 7 -1 1 19 -17 54 -21 61 -16
25z"/>
<path d="M1670 1100 c-11 -7 -7 -10 17 -10 17 0 35 5 38 10 8 13 -35 13 -55 0z"/>
<path d="M1746 1097 c3 -10 9 -15 12 -12 3 3 0 11 -7 18 -10 9 -11 8 -5 -6z"/>
<path d="M1517 1069 c4 -13 8 -18 11 -10 2 7 -1 18 -6 23 -8 8 -9 4 -5 -13z"/>
<path d="M1550 1026 c0 -8 9 -14 19 -13 15 1 17 4 9 14 -14 17 -28 16 -28 -1z"/>
<path d="M1622 1000 c14 -11 40 -42 57 -69 30 -46 31 -52 21 -88 -7 -21 -10
-50 -8 -63 2 -18 8 -7 19 37 12 50 13 68 3 91 -14 35 -86 112 -104 112 -7 0
-1 -9 12 -20z"/>
<path d="M1318 963 c-19 -23 -31 -43 -24 -43 2 0 14 14 26 30 23 33 22 40 -2
13z"/>
<path d="M1510 970 c20 -13 33 -13 25 0 -3 6 -14 10 -23 10 -15 0 -15 -2 -2
-10z"/>
<path d="M1550 976 c0 -2 7 -6 15 -10 8 -3 15 -1 15 4 0 6 -7 10 -15 10 -8 0
-15 -2 -15 -4z"/>
<path d="M1314 894 c-5 -18 -1 -31 11 -42 10 -10 15 -11 11 -4 -4 6 -2 12 3
12 6 0 11 -6 11 -13 0 -20 30 -43 75 -57 22 -7 44 -15 50 -18 18 -11 50 -9 89
4 21 8 43 11 48 8 18 -11 -52 -44 -94 -44 -48 0 -48 -6 1 -13 23 -4 47 1 71
13 35 18 57 46 45 58 -3 3 -5 0 -5 -7 0 -7 -5 -9 -10 -6 -6 4 8 23 32 45 l43
38 -110 0 c-60 0 -143 0 -184 1 -73 1 -73 1 -69 26 7 33 -10 32 -18 -1z m107
-44 c10 -6 19 -20 19 -31 0 -28 -23 -19 -31 12 l-7 24 -1 -24 c-1 -28 -10 -24
-16 8 -4 23 6 26 36 11z m219 1 c-1 -21 -53 -56 -69 -47 -5 3 -22 -1 -37 -9
-22 -11 -31 -12 -43 -2 -12 10 -13 9 -6 -2 6 -11 4 -13 -9 -8 -10 4 -20 7 -22
7 -2 0 -4 14 -4 30 0 26 3 29 18 21 11 -6 24 -6 34 0 11 6 19 5 24 -2 4 -8 9
-7 15 2 8 12 10 12 18 1 7 -11 9 -11 14 2 6 14 67 21 67 7z"/>
<path d="M1503 905 c0 -8 4 -15 9 -15 4 0 8 4 8 9 0 6 -4 12 -8 15 -5 3 -9 -1
-9 -9z"/>
<path d="M1271 884 c0 -11 3 -14 6 -6 3 7 2 16 -1 19 -3 4 -6 -2 -5 -13z"/>
<path d="M1290 826 c0 -8 4 -17 9 -20 5 -4 7 3 4 14 -6 23 -13 26 -13 6z"/>
<path d="M1336 793 c7 -16 14 -33 14 -39 0 -6 10 -19 22 -30 21 -19 21 -19 16
3 -4 15 -2 20 8 16 7 -2 10 -11 7 -19 -3 -8 0 -14 7 -14 6 0 8 5 5 10 -3 6 0
10 7 10 7 0 1 8 -12 17 -14 9 -31 25 -38 35 -7 10 -22 22 -32 28 -18 10 -18 9
-4 -17z"/>
<path d="M1460 703 c0 -9 78 -8 87 1 4 3 -15 6 -40 6 -26 0 -47 -3 -47 -7z"/>
<path d="M1495 610 c-16 -7 -17 -9 -3 -9 9 -1 20 4 23 9 7 11 7 11 -20 0z"/>
<path d="M1462 388 c26 -38 39 -49 49 -42 9 5 -51 74 -64 74 -4 0 3 -15 15
-32z"/>
<path d="M1790 355 c-7 -8 -16 -13 -20 -10 -4 3 -33 -22 -63 -55 -31 -33 -63
-60 -71 -60 -9 0 -14 -8 -13 -20 1 -11 5 -19 10 -17 5 1 8 6 7 11 -2 12 51 46
71 46 9 0 20 7 23 16 3 8 2 12 -4 9 -19 -12 -10 8 15 31 14 13 25 18 25 12 0
-6 10 1 21 16 22 28 21 48 -1 21z"/>
<path d="M1041 344 c0 -11 3 -14 6 -6 3 7 2 16 -1 19 -3 4 -6 -2 -5 -13z"/>
<path d="M1270 317 c0 -12 -5 -16 -12 -11 -7 4 -6 -1 4 -11 23 -24 37 -15 21
15 -10 19 -13 21 -13 7z"/>
<path d="M904 295 c-3 -8 -4 -20 -2 -27 3 -7 7 -1 10 15 6 29 1 36 -8 12z"/>
<path d="M1300 265 c-10 -12 -9 -16 6 -22 11 -4 25 -13 33 -20 14 -15 33 -14
33 2 0 5 -6 11 -13 14 -7 2 -9 -1 -4 -9 5 -9 4 -11 -4 -6 -6 4 -9 11 -6 15 2
5 -4 16 -14 25 -16 15 -20 15 -31 1z"/>
<path d="M731 200 c-1 -3 6 -23 14 -45 8 -22 14 -31 14 -20 0 17 -28 80 -28
65z"/>
<path d="M771 90 c14 -31 19 -36 19 -24 0 6 -7 19 -16 30 -14 18 -14 18 -3 -6z"/>
</g>
</svg>
