<?xml version="1.0" standalone="no"?>
<!DOCTYPE svg PUBLIC "-//W3C//DTD SVG 20010904//EN"
 "http://www.w3.org/TR/2001/REC-SVG-20010904/DTD/svg10.dtd">
<svg version="1.0" xmlns="http://www.w3.org/2000/svg"
 width="880.000000pt" height="920.000000pt" viewBox="0 0 880.000000 920.000000"
 preserveAspectRatio="xMidYMid meet">

<g transform="translate(0.000000,920.000000) scale(0.100000,-0.100000)"
fill="#000000" stroke="none">
<path d="M4235 8793 c-784 -34 -1516 -288 -2168 -751 -372 -264 -732 -637
-994 -1032 -626 -941 -822 -2084 -547 -3183 120 -479 296 -867 585 -1293 276
-406 671 -793 1089 -1069 511 -337 1042 -534 1705 -632 174 -26 813 -26 995 0
652 93 1197 298 1725 650 386 257 757 617 1027 997 411 580 647 1208 723 1925
19 176 22 581 5 755 -70 741 -341 1446 -784 2036 -178 238 -466 537 -693 718
-576 462 -1244 748 -1977 846 -134 18 -511 42 -591 38 -16 -1 -61 -3 -100 -5z
m-60 -2113 c1032 -60 1963 -298 2860 -730 157 -75 216 -124 261 -212 28 -56
42 -150 33 -223 -14 -113 -117 -252 -229 -311 -48 -25 -66 -29 -140 -29 -94 0
-78 -5 -370 130 -717 332 -1532 539 -2340 595 -188 13 -764 13 -950 0 -328
-24 -689 -76 -1007 -147 -227 -51 -319 -52 -415 -5 -148 73 -226 226 -199 392
22 134 108 257 214 306 95 43 529 131 879 178 171 23 479 52 628 59 163 8 621
6 775 -3z m-62 -1600 c851 -52 1679 -270 2397 -630 155 -78 204 -116 245 -191
27 -49 30 -63 30 -145 0 -88 -2 -95 -43 -175 -59 -117 -134 -206 -202 -242
-80 -42 -116 -34 -340 73 -604 288 -1109 435 -1810 527 -113 15 -213 18 -610
18 -476 0 -517 -2 -795 -41 -148 -21 -389 -68 -559 -110 -185 -45 -259 -46
-344 -3 -97 48 -152 124 -173 235 -28 153 61 382 175 449 137 80 918 216 1366
238 162 8 506 6 663 -3z m200 -1520 c630 -74 1239 -260 1745 -533 126 -68 155
-98 194 -205 18 -47 22 -80 22 -187 1 -128 0 -131 -30 -185 -35 -61 -101 -113
-167 -131 -81 -22 -129 -8 -363 104 -530 253 -934 372 -1486 434 -215 24 -714
24 -923 0 -259 -30 -489 -74 -718 -138 -167 -46 -229 -49 -302 -15 -55 25
-119 90 -141 142 -53 126 0 375 102 476 41 42 109 67 309 117 301 75 585 120
920 145 28 2 187 2 355 1 231 -3 348 -9 483 -25z"/>
</g>
</svg>
