<?xml version="1.0" encoding="iso-8859-1"?>
<!-- Generator: Adobe Illustrator 19.0.0, SVG Export Plug-In . SVG Version: 6.00 Build 0)  -->
<svg version="1.1" id="Layer_1" xmlns="http://www.w3.org/2000/svg" xmlns:xlink="http://www.w3.org/1999/xlink" x="0px" y="0px"
	 viewBox="0 0 512 512" style="enable-background:new 0 0 512 512;" xml:space="preserve">
<g>
	<g>
		<path d="M437.019,74.982C388.667,26.628,324.379,0,256,0S123.333,26.628,74.981,74.982C26.628,123.333,0,187.621,0,256
			s26.628,132.667,74.981,181.018C123.333,485.372,187.621,512,256,512s132.667-26.628,181.019-74.981S512,324.379,512,256
			S485.372,123.333,437.019,74.982z M256,495.832C123.756,495.832,16.168,388.244,16.168,256S123.756,16.168,256,16.168
			S495.832,123.756,495.832,256S388.244,495.832,256,495.832z"/>
	</g>
</g>
<g>
	<g>
		<path d="M375.743,186.891c-10.023-11.6-23.422-19.717-38.186-23.234c-7.636-32-36.473-55.867-70.779-55.867h-68.636
			c-14.135,0-26.153,10.107-28.575,24.034l-40.101,230.581c-0.409,2.352,0.242,4.763,1.777,6.588
			c1.536,1.826,3.801,2.881,6.187,2.881h54.259l-8.31,44.321c-0.443,2.363,0.189,4.802,1.725,6.653
			c1.536,1.851,3.817,2.921,6.221,2.921H256c3.907,0,7.254-2.794,7.954-6.638L284.304,307.2h36.369
			c40.119,0,72.758-32.639,72.758-72.758C393.432,216.977,387.15,200.09,375.743,186.891z M320.674,291.032h-43.116
			c-3.907,0-7.254,2.794-7.954,6.638L249.253,409.6h-48.186l16.233-86.579c0.932-4.976-2.884-9.574-7.946-9.574
			c-3.89,0-7.228,2.771-7.946,6.595l-6.686,35.663h-47.679l38.454-221.112c1.071-6.163,6.39-10.636,12.645-10.636h67.686
			c30.986,0,56.94,24.513,57.528,55.494c0.604,31.702-25.009,57.685-56.578,57.685h-43.116c-3.89,0-7.229,2.771-7.946,6.595
			l-6.924,36.931c-0.932,4.976,2.884,9.574,7.946,9.574c3.89,0,7.228-2.771,7.946-6.595l5.688-30.336h36.406
			c39.94,0,72.467-32.345,72.756-72.219c22.087,7.879,37.729,29.248,37.729,53.356C377.263,265.645,351.878,291.032,320.674,291.032
			z"/>
	</g>
</g>
<g>
</g>
<g>
</g>
<g>
</g>
<g>
</g>
<g>
</g>
<g>
</g>
<g>
</g>
<g>
</g>
<g>
</g>
<g>
</g>
<g>
</g>
<g>
</g>
<g>
</g>
<g>
</g>
<g>
</g>
</svg>
